<svg width="870" height="77" fill="none" xmlns="http://www.w3.org/2000/svg"><path fill-rule="evenodd" clip-rule="evenodd" d="M45.656 70.033h-16V46.21h16v23.823zm-2.938-20.899H32.593V67.11h10.125V49.134z" fill="#81B3D2"/><path fill-rule="evenodd" clip-rule="evenodd" d="M72.771 44.253l2.076-2.068-9.908-9.865V5H51.127v13.567L37.5 5 .152 42.185l2.077 2.068 7.832-7.795v37.618H6.124V77h63.875v-2.924H64.94V36.458l7.831 7.795zM62.002 74.076H12.999V33.534L37.5 9.149l24.502 24.385v40.542zm-7.938-52.584l7.938 7.902V7.924h-7.938v13.568z" fill="#81B3D2"/><path fill-rule="evenodd" clip-rule="evenodd" d="M37.656 39.793c-4.28 0-7.75-3.452-7.75-7.713 0-4.26 3.469-7.713 7.75-7.713 4.279 0 7.75 3.454 7.75 7.713 0 4.26-3.471 7.713-7.75 7.713zm4.969-7.713c0-2.731-2.225-4.945-4.969-4.945-2.745 0-4.97 2.214-4.97 4.945 0 2.732 2.224 4.948 4.97 4.948 2.744 0 4.969-2.216 4.969-4.948zM17.061 46.21h3v3.919h-3v-3.92zm8.938 0h-3v3.919h3v-3.92zm-8.938 5.972h3V56.1h-3v-3.92zm8.938 0h-3V56.1h3v-3.92zm22.999-5.972h3v3.919h-3v-3.92zm8.938 0h-3v3.919h3v-3.92zm-8.938 5.972h3V56.1h-3v-3.92zm8.938 0h-3V56.1h3v-3.92zM867.097 23.501h-24.785c13.813-6.899 14.917-11.251 14.408-13.685-1.162-3.963-5.692-7.023-10.002-5.407-5.569 2.089-7.137 10.388-8.644 16.387-1.924-6.07-3.784-13.814-8.136-17.737-1.261-1.138-3.095-2.264-5.763-2.028-4.026.356-9.802 5.382-7.458 10.981 2.251 5.378 9.687 8.777 14.578 11.489h-22.416A2.882 2.882 0 00806 26.37v11.322a2.882 2.882 0 002.879 2.869h.274V77h57.841V40.561h.103a2.882 2.882 0 002.88-2.869V26.37a2.882 2.882 0 00-2.88-2.869zM848.413 6.944c2.103-.31 4.982 1.299 5.255 3.209.393 2.756-3.4 5.255-5.086 6.421-2.523 1.744-4.928 2.643-7.287 4.055.884-3.69 2.549-13.011 7.118-13.685zm-22.882 9.968c-2.225-1.485-6.544-4.431-6.44-7.771.112-3.595 5.743-6.57 8.814-3.886 3.856 3.371 5.713 11.105 7.119 16.557-3.249-1.539-6.328-2.788-9.493-4.9zm5.972 57.114h-19.367V40.561h19.368v33.465h-.001zm0-36.502h-22.457V26.538h22.457v10.986zm10.157 0v36.503h-7.174V26.538h7.174v10.986zm22.351 36.502h-19.367V40.561h19.367v33.465zm2.92-36.502h-22.287V26.538h22.287v10.986zM408.978 37.544h60.877c.041-.619.069-1.241.069-1.87 0-.393-.016-.78-.032-1.17v-.003C469.227 18.657 455.186 6 437.952 6c-17.233 0-31.275 12.657-31.939 28.501-.017.39-.032.78-.032 1.173 0 .629.028 1.251.07 1.87h2.927zm12.979 10.921l-5.323-4.059-5.326 4.059-6.188-4.714 1.721-2.457 4.467 3.401 5.327-4.057 5.323 4.057 5.325-4.057 5.328 4.057 5.328-4.057 5.328 4.057 5.329-4.057 5.327 4.057 5.33-4.056 5.336 4.057 4.474-3.403 1.72 2.459-6.194 4.712-5.336-4.059-5.33 4.06-5.327-4.059-5.329 4.059-5.328-4.059-5.328 4.059-5.328-4.059-5.326 4.059zm-16.906 4.245h65.803c2.274 0 4.134 1.94 4.134 4.313v3.504c0 2.372-1.861 4.313-4.135 4.313h-.93v1.053c0 5.536-4.342 10.065-9.648 10.065h-44.646c-5.307 0-9.648-4.529-9.648-10.065V64.84h-.93c-2.274 0-4.135-1.941-4.135-4.313v-3.504c0-2.373 1.861-4.313 4.135-4.313zm55.225 20.205c3.711 0 6.73-3.15 6.73-7.021h-.001v-1.053h-58.107v1.053c0 3.871 3.02 7.021 6.731 7.021h44.647zm11.795-12.388c0 .688-.558 1.271-1.218 1.271h-65.802c-.66 0-1.217-.582-1.217-1.271v-3.504c0-.688.558-1.271 1.217-1.271h65.802c.66 0 1.218.582 1.218 1.271v3.504zm-5.098-26.026c-.671-14.142-13.43-25.458-29.021-25.458-15.591 0-28.348 11.316-29.021 25.458h58.042z" fill="#81B3D2"/><path d="M437.952 23.29c1.074 0 1.945-.909 1.945-2.03 0-1.121-.871-2.03-1.945-2.03s-1.945.909-1.945 2.03c0 1.121.871 2.03 1.945 2.03zM430.172 18.26c1.075 0 1.946-.909 1.946-2.03 0-1.121-.871-2.03-1.946-2.03s-1.946.909-1.946 2.03c0 1.121.871 2.03 1.946 2.03zM445.732 18.26c1.075 0 1.946-.909 1.946-2.03 0-1.121-.871-2.03-1.946-2.03s-1.946.909-1.946 2.03c0 1.121.871 2.03 1.946 2.03z" fill="#81B3D2"/></svg>